<svg xmlns="http://www.w3.org/2000/svg" version="1.1" xmlns:xlink="http://www.w3.org/1999/xlink" xmlns:svgjs="http://svgjs.dev/svgjs" width="2000" height="1500" viewBox="0 0 2000 1500"><rect width="2000" height="1500" fill="#2e024e"></rect><g transform="matrix(0.75,0,0,0.75,249.090909090909,555.053463970678)"><svg viewBox="0 0 396 103" data-background-color="#2e024e" preserveAspectRatio="xMidYMid meet" height="520" width="2000" xmlns="http://www.w3.org/2000/svg" xmlns:xlink="http://www.w3.org/1999/xlink"><g id="tight-bounds" transform="matrix(1,0,0,1,0.2400000000000091,-0.014119971743156157)"><svg viewBox="0 0 395.52 103.02823994348627" height="103.02823994348627" width="395.52"><g><svg viewBox="0 0 569.0687630108084 148.23562161160118" height="103.02823994348627" width="395.52"><g transform="matrix(1,0,0,1,0,20.486978095380486)"><svg viewBox="0 0 395.52000000000004 107.2616654208402" height="107.2616654208402" width="395.52000000000004"><g id="textblocktransform"><svg viewBox="0 0 395.52000000000004 107.2616654208402" height="107.2616654208402" width="395.52000000000004" id="textblock"><g><svg viewBox="0 0 395.52000000000004 107.2616654208402" height="107.2616654208402" width="395.52000000000004"><g transform="matrix(1,0,0,1,0,0)"><svg width="395.52000000000004" viewBox="1.25 -37.1 168.36499999999998 45.35" height="107.2616654208402" data-palette-color="#d579ff"><g class="wordmark-text-0" data-fill-palette-color="primary" id="text-0"><path d="M19.75-20.65L19.75-20.65Q18.75-22.15 16.95-23.1 15.15-24.05 12.65-24.05L12.65-24.05Q9.95-24.05 8.18-22.9 6.4-21.75 6.4-19.8L6.4-19.8Q6.4-18.75 7.2-17.82 8-16.9 10.45-16.1L10.45-16.1 16.8-14.2Q20.25-13.25 21.78-11.45 23.3-9.65 23.3-7.3L23.3-7.3Q23.3-4.95 21.9-3.2 20.5-1.45 18.05-0.48 15.6 0.5 12.5 0.5L12.5 0.5Q8.55 0.5 5.6-1.07 2.65-2.65 1.4-5L1.4-5Q1.25-5.25 1.25-5.45 1.25-5.65 1.5-5.8L1.5-5.8 3.45-6.9Q3.7-7.05 3.9-7.03 4.1-7 4.2-6.85L4.2-6.85Q5.05-5.55 6.18-4.6 7.3-3.65 8.88-3.1 10.45-2.55 12.55-2.55L12.55-2.55Q14.45-2.6 16-3.1 17.55-3.6 18.45-4.58 19.35-5.55 19.35-6.85L19.35-6.85Q19.35-8.2 18.25-9.18 17.15-10.15 14.45-10.9L14.45-10.9 9.3-12.35Q5.55-13.35 4.03-15.05 2.5-16.75 2.45-19.05L2.45-19.05Q2.45-21.45 3.75-23.23 5.05-25 7.38-26 9.7-27 12.7-27L12.7-27Q16.05-27 18.68-25.73 21.3-24.45 22.65-22.35L22.65-22.35Q22.8-22.15 22.8-21.98 22.8-21.8 22.6-21.65L22.6-21.65 20.5-20.5Q20.3-20.4 20.13-20.43 19.95-20.45 19.75-20.65L19.75-20.65ZM30.15 0L30.15 0Q29.5 0 29.5-0.65L29.5-0.65 29.5-36.45Q29.5-37.1 30.05-37.1L30.05-37.1 33-37.1Q33.55-37.1 33.55-36.5L33.55-36.5 33.55-23.15Q33.55-22.9 33.65-22.85 33.75-22.8 34-23L34-23Q35.75-24.35 37.22-25.25 38.7-26.15 40.12-26.58 41.55-27 43.25-27L43.25-27Q47.15-27 49.2-24.93 51.25-22.85 51.25-19.4L51.25-19.4 51.25-0.8Q51.25 0 50.5 0L50.5 0 47.7 0Q47.35 0 47.2-0.18 47.05-0.35 47.05-0.65L47.05-0.65 47.05-18.5Q47.05-20.95 45.8-22.33 44.55-23.7 41.85-23.7L41.85-23.7Q40.4-23.7 39.12-23.23 37.85-22.75 36.55-21.88 35.25-21 33.7-19.65L33.7-19.65 33.7-0.75Q33.7 0 32.9 0L32.9 0 30.15 0ZM69.75 0.5L69.75 0.5Q66 0.5 63.12-1.23 60.25-2.95 58.67-6.03 57.09-9.1 57.09-13.1L57.09-13.1Q57.09-17.25 58.72-20.38 60.34-23.5 63.2-25.25 66.05-27 69.8-27L69.8-27Q73.59-27 76.42-25.23 79.25-23.45 80.82-20.33 82.4-17.2 82.4-13.15L82.4-13.15Q82.4-9.15 80.8-6.08 79.2-3 76.37-1.25 73.55 0.5 69.75 0.5L69.75 0.5ZM69.84-2.65L69.84-2.65Q72.45-2.65 74.3-3.93 76.15-5.2 77.12-7.58 78.09-9.95 78.09-13.25L78.09-13.25Q78.09-16.55 77.09-18.93 76.09-21.3 74.25-22.6 72.4-23.9 69.8-23.9L69.8-23.9Q67.25-23.9 65.34-22.6 63.45-21.3 62.42-18.93 61.4-16.55 61.4-13.25L61.4-13.25Q61.4-10 62.42-7.6 63.45-5.2 65.34-3.93 67.25-2.65 69.84-2.65L69.84-2.65ZM92.04-26.5L92.04-26.5Q92.74-26.5 92.74-25.75L92.74-25.75 92.74-23.65Q92.74-23.25 92.92-23.23 93.09-23.2 93.39-23.45L93.39-23.45Q93.94-24.05 94.89-24.88 95.84-25.7 97.37-26.35 98.89-27 101.24-27L101.24-27Q104.29-27 106.77-25.53 109.24-24.05 110.72-21.1 112.19-18.15 112.19-13.65L112.19-13.65Q112.19-9.15 110.74-6 109.29-2.85 106.72-1.18 104.14 0.5 100.69 0.5L100.69 0.5Q98.39 0.5 96.62-0.23 94.84-0.95 93.59-2L93.59-2Q93.14-2.4 92.97-2.33 92.79-2.25 92.79-1.7L92.79-1.7 92.79 7.6Q92.79 8.25 92.24 8.25L92.24 8.25 89.14 8.25Q88.59 8.25 88.59 7.6L88.59 7.6 88.59-25.7Q88.59-26.15 88.77-26.33 88.94-26.5 89.39-26.5L89.39-26.5 92.04-26.5ZM92.79-5.85L92.79-5.85Q94.34-4.35 95.97-3.45 97.59-2.55 99.59-2.55L99.59-2.55Q101.99-2.55 103.87-3.8 105.74-5.05 106.82-7.5 107.89-9.95 107.89-13.6L107.89-13.6Q107.89-17.25 106.79-19.55 105.69-21.85 103.87-22.9 102.04-23.95 99.84-23.95L99.84-23.95Q97.79-23.95 96.19-23.05 94.59-22.15 93.69-20.83 92.79-19.5 92.79-18.2L92.79-18.2 92.79-5.85ZM121.89-26.5L121.89-26.5Q122.59-26.5 122.59-25.75L122.59-25.75 122.59-23.65Q122.59-23.25 122.77-23.23 122.94-23.2 123.24-23.45L123.24-23.45Q123.79-24.05 124.74-24.88 125.69-25.7 127.22-26.35 128.74-27 131.09-27L131.09-27Q134.14-27 136.62-25.53 139.09-24.05 140.56-21.1 142.04-18.15 142.04-13.65L142.04-13.65Q142.04-9.15 140.59-6 139.14-2.85 136.56-1.18 133.99 0.5 130.54 0.5L130.54 0.5Q128.24 0.5 126.47-0.23 124.69-0.95 123.44-2L123.44-2Q122.99-2.4 122.81-2.33 122.64-2.25 122.64-1.7L122.64-1.7 122.64 7.6Q122.64 8.25 122.09 8.25L122.09 8.25 118.99 8.25Q118.44 8.25 118.44 7.6L118.44 7.6 118.44-25.7Q118.44-26.15 118.62-26.33 118.79-26.5 119.24-26.5L119.24-26.5 121.89-26.5ZM122.64-5.85L122.64-5.85Q124.19-4.35 125.81-3.45 127.44-2.55 129.44-2.55L129.44-2.55Q131.84-2.55 133.72-3.8 135.59-5.05 136.67-7.5 137.74-9.95 137.74-13.6L137.74-13.6Q137.74-17.25 136.64-19.55 135.54-21.85 133.72-22.9 131.89-23.95 129.69-23.95L129.69-23.95Q127.64-23.95 126.04-23.05 124.44-22.15 123.54-20.83 122.64-19.5 122.64-18.2L122.64-18.2 122.64-5.85ZM149.74 8.25L149.74 8.25Q148.29 8.25 147.49 8.15 146.69 8.05 146.69 7.6L146.69 7.6 146.69 5.65Q146.69 5.3 146.96 5.15 147.24 5 148.09 5L148.09 5 151.24 5Q152.34 5 153.24 4.28 154.14 3.55 154.74 2.45 155.34 1.35 155.54 0.23 155.74-0.9 155.39-1.75L155.39-1.75 145.84-25.65Q145.74-26 145.86-26.25 145.99-26.5 146.39-26.5L146.39-26.5 149.49-26.5Q149.79-26.5 149.99-26.38 150.19-26.25 150.29-25.95L150.29-25.95 157.74-6.55Q157.94-6.1 158.19-6.1 158.44-6.1 158.64-6.7L158.64-6.7 165.99-25.95Q166.14-26.25 166.29-26.38 166.44-26.5 166.69-26.5L166.69-26.5 169.04-26.5Q169.39-26.5 169.54-26.28 169.69-26.05 169.54-25.75L169.54-25.75 158.54 2.35Q157.84 4.15 156.99 5.3 156.14 6.45 155.06 7.08 153.99 7.7 152.69 7.98 151.39 8.25 149.74 8.25L149.74 8.25Z" fill="#d579ff" data-fill-palette-color="primary"></path></g></svg></g></svg></g></svg></g></svg></g><g transform="matrix(1,0,0,1,420.84190492589033,0)"><svg viewBox="0 0 148.22685808491815 148.23562161160118" height="148.23562161160118" width="148.22685808491815"><g><svg xmlns="http://www.w3.org/2000/svg" xmlns:xlink="http://www.w3.org/1999/xlink" version="1.1" x="0" y="0" viewBox="8.085714285714285 8.098169278175142 83.79687644989187 83.80183072182484" enable-background="new 0 0 100 100" xml:space="preserve" height="148.23562161160118" width="148.22685808491815" class="icon-icon-0" data-fill-palette-color="accent" id="icon-0"><path d="M50 77.1c3.6 0 7.1-0.7 10.4-2.1 13.8-5.7 20.4-21.6 14.7-35.5C70.9 29.4 61 22.9 50 22.9c-3.6 0-7.1 0.7-10.4 2.1-13.8 5.7-20.4 21.6-14.7 35.5C29.1 70.6 39 77.1 50 77.1zM30.3 61.7h5.5c1.1 3.3 2.6 6.5 4.4 9.1C36.2 68.8 32.7 65.7 30.3 61.7zM71.7 42.6c1.7 5 1.6 10.2 0 14.9h-6c0.5-2.5 0.8-5.1 0.8-7.5 0-2.5-0.2-5-0.7-7.4H71.7zM62.2 50c0 2.4-0.3 5-1 7.5h-9V42.6h9.2C62 44.9 62.2 47.4 62.2 50zM48 72.2c-3.1-1.4-5.9-5.6-7.7-10.5H48V72.2zM52.3 72.2V61.7H60C58.1 66.7 55.3 70.9 52.3 72.2zM52.3 38.3V27.6c3.2 1.3 6.2 5.4 8 10.7H52.3zM48 27.6v10.7h-8C41.8 33 44.8 28.9 48 27.6zM48 42.6v14.9h-9c-0.6-2.5-1-5.1-1-7.5 0-2.5 0.3-5 0.8-7.4H48zM34.7 57.4h-6.3c-1.7-5-1.6-10.2 0-14.9h6.1C34 45 33.8 47.5 33.8 50 33.8 52.3 34.1 54.8 34.7 57.4zM60.2 70.5c0.6-0.9 1.3-1.9 1.8-3 0.9-1.8 1.8-3.7 2.4-5.8h5.2C67.5 65.4 64.3 68.5 60.2 70.5zM69.7 38.3h-4.9c-0.7-2.3-1.6-4.6-2.7-6.5-0.4-0.7-0.8-1.3-1.2-1.9C64.5 31.8 67.5 34.7 69.7 38.3zM39.5 29.6c-0.5 0.7-0.9 1.4-1.3 2.1-1.1 2-2 4.2-2.7 6.5h-5.2C32.5 34.7 35.6 31.7 39.5 29.6zM49.5 8.1c10.8-0.1 21.1 3.9 29 11.2l0-3.2c0-1.2 0.9-2.1 2.1-2.1 0 0 0 0 0 0 1.2 0 2.1 0.9 2.1 2.1l0.1 8.3c0 1.2-0.9 2.1-2.1 2.1l-8.3 0.1c0 0 0 0 0 0-1.2 0-2.1-0.9-2.1-2.1 0-1.2 0.9-2.1 2.1-2.1l3.2 0c-7.1-6.5-16.2-10.1-25.9-10-10.1 0.1-19.5 4.1-26.5 11.3C12.9 34.1 9.6 49.1 14.5 62.8c0.4 1.1-0.2 2.3-1.3 2.7-0.2 0.1-0.5 0.1-0.7 0.1-0.9 0-1.7-0.5-2-1.4C7.9 56.9 7.4 49 9 41.4c1.6-7.8 5.5-15 11.1-20.7C27.8 12.7 38.3 8.2 49.5 8.1zM76.9 76.3c10.2-10.4 13.4-25.4 8.5-39.1-0.4-1.1 0.2-2.3 1.3-2.7 1.1-0.4 2.3 0.2 2.7 1.3 2.6 7.3 3.2 15.2 1.6 22.8-1.6 7.8-5.5 15-11.1 20.7-7.8 8-18.3 12.5-29.5 12.6-0.2 0-0.3 0-0.5 0-10.7 0-20.7-4-28.5-11.2l0 3.2c0 1.2-0.9 2.1-2.1 2.1 0 0 0 0 0 0-1.2 0-2.1-0.9-2.1-2.1l-0.1-8.3c0-0.6 0.2-1.1 0.6-1.5 0.4-0.4 0.9-0.6 1.5-0.6l8.3-0.1c1.2 0 2.1 0.9 2.1 2.1 0 1.2-0.9 2.1-2.1 2.1l-3.2 0C39.4 91.4 62.7 90.9 76.9 76.3z" fill="#ffffff" data-fill-palette-color="accent"></path></svg></g></svg></g></svg></g><defs></defs></svg><rect width="395.52" height="103.02823994348627" fill="none" stroke="none" visibility="hidden"></rect></g></svg></g></svg>